#!OML:ASF H:\Pregnant\Project 1\Capture day 1\Session 1\femalepreg.ASF
:FULLY-SPECIFIED
:DEGREES
209
root 3.64967 15.8931 12.5149 28.8515 -9.32495 -5.28419
lowerback -12.9372 -0.176585 5.22657
upperback -6.4212 -0.890865 1.2421
thorax 0.439387 -0.560627 -1.76297
lowerneck -26.7369 -1.43347 2.40284
upperneck 20.2392 -4.35132 5.21603
head 11.0544 -1.08198 0.785292
rclavicle 1.60519e-014 -2.98177e-015
rhumerus -34.277 32.592 -96.2667
rradius 88.7401
rwrist -40.8573
rhand -10.7074 -34.9958
rfingers 7.12502
rthumb 15.3024 -64.4097
lclavicle 1.60519e-014 -2.98177e-015
lhumerus -34.1255 -26.4657 92.271
lradius 88.0832
lwrist 64.0948
lhand -50.8339 16.8137
lfingers 7.12502
lthumb -23.3892 45.4124
rfemur -37.1094 23.1388 2.5409
rtibia 20.6609
rfoot -8.88855 -39.9034
rtoes -7.02873
lfemur -21.6144 -10.5475 -0.615382
ltibia 3.39845
lfoot -4.98772 30.1958
ltoes -6.58507
210
root 3.65741 15.8871 12.5412 28.6129 -9.30147 -5.25594
lowerback -13.2177 -0.172649 5.0972
upperback -6.38007 -0.889781 1.20249
thorax 0.635765 -0.552462 -1.73574
lowerneck -26.5145 -1.51783 2.30017
upperneck 20.4996 -4.44933 5.25931
head 11.1173 -1.1245 0.802718
rclavicle -9.98893e-015 -3.77691e-015
rhumerus -33.8801 32.53 -96.0929
rradius 88.6799
rwrist -40.846
rhand -10.6923 -34.7885
rfingers 7.12502
rthumb 15.3169 -64.2013
lclavicle -9.98893e-015 -3.77691e-015
lhumerus -33.6136 -26.4174 92.0419
lradius 88.1277
lwrist 63.6529
lhand -50.811 16.5894
lfingers 7.12502
lthumb -23.3673 45.1909
rfemur -36.8592 24.4433 1.99415
rtibia 20.5879
rfoot -9.98659 -41.1552
rtoes -5.76452
lfemur -21.6524 -10.9793 -0.748058
ltibia 4.12958
lfoot -5.77637 30.4331
ltoes -5.79865
211
root 3.66504 15.8812 12.5675 28.4104 -9.25525 -5.2054
lowerback -13.5203 -0.174423 4.94988
upperback -6.35198 -0.893874 1.15666
thorax 0.829912 -0.547149 -1.70573
lowerneck -26.2611 -1.60068 2.25333
upperneck 20.7066 -4.54769 5.24826
head 11.1515 -1.17236 0.791076
rclavicle 7.35503e-015 -7.7526e-015
rhumerus -33.5169 32.4912 -95.9288
rradius 88.6596
rwrist -40.7513
rhand -10.8063 -34.399
rfingers 7.12502
rthumb 15.2071 -63.8201
lclavicle 7.35503e-015 -7.7526e-015
lhumerus -33.1283 -26.3991 91.8179
lradius 88.2076
lwrist 63.2057
lhand -50.7981 16.2665
lfingers 7.12502
lthumb -23.355 44.8696
rfemur -36.6713 25.7594 1.40559
rtibia 20.5383
rfoot -11.2619 -42.4168
rtoes -4.38234
lfemur -21.6965 -11.424 -0.87986
ltibia 4.76168
lfoot -6.49122 30.6739
ltoes -5.05074
212
root 3.67295 15.8752 12.5941 28.2302 -9.18829 -5.14383
lowerback -13.8321 -0.179979 4.79864
upperback -6.33401 -0.90139 1.10749
thorax 1.01788 -0.544083 -1.67749
lowerneck -25.9843 -1.67634 2.1765
upperneck 20.8765 -4.63303 5.2812
head 11.1693 -1.21271 0.802731
rclavicle 5.46658e-016 -3.51849e-014
rhumerus -33.1947 32.4818 -95.7774
rradius 88.6833
rwrist -40.6361
rhand -11.0286 -33.9152
rfingers 7.12502
rthumb 14.993 -63.3524
lclavicle 5.46658e-016 -3.51849e-014
lhumerus -32.6707 -26.4008 91.6017
lradius 88.3148
lwrist 62.6982
lhand -50.7704 16.025
lfingers 7.12502
lthumb -23.3283 44.6315
rfemur -36.5169 27.0491 0.813901
rtibia 20.5008
rfoot -12.6679 -43.6363
rtoes -2.95031
lfemur -21.7536 -11.8822 -1.00672
ltibia 5.34359
lfoot -7.14963 30.9186
ltoes -4.37483
213
root 3.68143 15.8692 12.6207 28.0648 -9.0924 -5.07685
lowerback -14.1471 -0.194729 4.65015
upperback -6.3254 -0.920068 1.06098
thorax 1.19668 -0.547209 -1.64961
lowerneck -25.702 -1.75365 2.08781
upperneck 21.0405 -4.71909 5.32495
head 11.1845 -1.25335 0.820329
rclavicle -5.61567e-015 -1.94809e-014
rhumerus -32.916 32.5097 -95.6432
rradius 88.7539
rwrist -40.5579
rhand -11.3591 -33.3952
rfingers 7.12502
rthumb 14.6745 -62.8559
lclavicle -5.61567e-015 -1.94809e-014
lhumerus -32.2481 -26.4106 91.3994
lradius 88.451
lwrist 62.1482
lhand -50.7468 15.7469
lfingers 7.12502
lthumb -23.3057 44.3562
rfemur -36.3685 28.2739 0.251258
rtibia 20.4623
rfoot -14.1687 -44.7747
rtoes -1.51009
lfemur -21.8361 -12.3608 -1.11883
ltibia 5.90368
lfoot -7.75081 31.1715
ltoes -3.80424
214
root 3.69053 15.8634 12.6468 27.9175 -8.97646 -5.01388
lowerback -14.4592 -0.212638 4.5151
upperback -6.32136 -0.943084 1.01413
thorax 1.36828 -0.553164 -1.63038
lowerneck -25.4032 -1.82951 1.98192
upperneck 21.1671 -4.80325 5.40325
head 11.1842 -1.2917 0.853813
rclavicle -3.37934e-015 -2.50469e-014
rhumerus -32.668 32.565 -95.5246
rradius 88.8647
rwrist -40.551
rhand -11.7354 -32.9354
rfingers 7.12502
rthumb 14.312 -62.4222
lclavicle -3.37934e-015 -2.50469e-014
lhumerus -31.8482 -26.4336 91.2039
lradius 88.6165
lwrist 61.5548
lhand -50.7119 15.4246
lfingers 7.12502
lthumb -23.2722 44.0382
rfemur -36.2152 29.3823 -0.250393
rtibia 20.4078
rfoot -15.656 -45.7807
rtoes -0.16105
lfemur -21.9538 -12.8468 -1.20895
ltibia 6.46049
lfoot -8.28934 31.4349
ltoes -3.37786
215
root 3.70044 15.858 12.6722 27.7793 -8.84363 -4.96151
lowerback -14.7659 -0.227106 4.40785
upperback -6.31485 -0.963562 0.957117
thorax 1.53865 -0.558556 -1.63715
lowerneck -25.1392 -1.91091 1.87268
upperneck 21.3003 -4.90477 5.51053
head 11.1944 -1.33356 0.895596
rclavicle -2.33075e-014 2.10712e-014
rhumerus -32.4352 32.6212 -95.4279
rradius 89.0125
rwrist -40.6188
rhand -12.1415 -32.5724
rfingers 7.12502
rthumb 13.9207 -62.0865
lclavicle -2.33075e-014 2.10712e-014
lhumerus -31.4643 -26.48 90.9994
lradius 88.8138
lwrist 60.9575
lhand -50.6674 15.1558
lfingers 7.12502
lthumb -23.2295 43.7748
rfemur -36.032 30.3469 -0.663419
rtibia 20.3278
rfoot -17.056 -46.6352
rtoes 1.04248
lfemur -22.0922 -13.3364 -1.27147
ltibia 7.00889
lfoot -8.76153 31.711
ltoes -3.08857
216
root 3.71097 15.8532 12.6967 27.6538 -8.70001 -4.92006
lowerback -15.06 -0.238253 4.32199
upperback -6.30377 -0.980824 0.893909
thorax 1.70643 -0.562812 -1.66201
lowerneck -24.9035 -1.99142 1.74787
upperneck 21.412 -5.01148 5.66116
head 11.204 -1.37364 0.954888
rclavicle 2.00276e-014 8.74653e-015
rhumerus -32.2048 32.673 -95.3414
rradius 89.1846
rwrist -40.7184
rhand -12.5669 -32.1878
rfingers 7.12502
rthumb 13.5107 -61.7295
lclavicle 2.00276e-014 8.74653e-015
lhumerus -31.0831 -26.5316 90.7838
lradius 89.0406
lwrist 60.3549
lhand -50.5904 15.018
lfingers 7.12502
lthumb -23.1557 43.6463
rfemur -35.8103 31.12 -0.967135
rtibia 20.2157
rfoot -18.2641 -47.3097
rtoes 2.03321
lfemur -22.2516 -13.82 -1.30135
ltibia 7.53973
lfoot -9.14173 32.0022
ltoes -3.00209
217
root 3.72228 15.8491 12.72 27.5317 -8.54153 -4.88229
lowerback -15.3329 -0.246659 4.25291
upperback -6.28841 -0.994604 0.820897
thorax 1.8669 -0.565802 -1.70596
lowerneck -24.7332 -2.06721 1.61659
upperneck 21.5293 -5.12325 5.84852
head 11.2299 -1.41026 1.02774
rclavicle 2.32081e-014 -8.34896e-015
rhumerus -31.9669 32.7078 -95.2669
rradius 89.3699
rwrist -40.8122
rhand -13.0134 -31.7805
rfingers 7.12502
rthumb 13.0803 -61.3504
lclavicle 2.32081e-014 -8.34896e-015
lhumerus -30.7031 -26.5893 90.555
lradius 89.2916
lwrist 59.7723
lhand -50.4919 14.9008
lfingers 7.12502
lthumb -23.0612 43.5409
rfemur -35.5332 31.7003 -1.16113
rtibia 20.0719
rfoot -19.2644 -47.8188
rtoes 2.83071
lfemur -22.4219 -14.3042 -1.29934
ltibia 8.03784
lfoot -9.40778 32.3132
ltoes -3.15265
218
root 3.73428 15.846 12.7422 27.4142 -8.38317 -4.85226
lowerback -15.5823 -0.250954 4.19565
upperback -6.27469 -1.00252 0.743445
thorax 2.01293 -0.566422 -1.76008
lowerneck -24.5835 -2.14114 1.52027
upperneck 21.6289 -5.24069 6.0179
head 11.2519 -1.44909 1.08725
rclavicle -2.4202e-014 3.57812e-015
rhumerus -31.7418 32.7336 -95.2111
rradius 89.5595
rwrist -40.8744
rhand -13.4511 -31.3448
rfingers 7.12502
rthumb 12.6583 -60.9412
lclavicle -2.4202e-014 3.57812e-015
lhumerus -30.3436 -26.6387 90.3301
lradius 89.5604
lwrist 59.202
lhand -50.3867 14.7302
lfingers 7.12502
lthumb -22.9602 43.383
rfemur -35.1998 32.0534 -1.2294
rtibia 19.9012
rfoot -19.9527 -48.143
rtoes 3.35481
lfemur -22.587 -14.7727 -1.26724
ltibia 8.48701
lfoot -9.56165 32.6403
ltoes -3.51259
219
root 3.74691 15.8437 12.7634 27.2972 -8.22023 -4.81934
lowerback -15.809 -0.254386 4.13792
upperback -6.25566 -1.00743 0.662468
thorax 2.15253 -0.565607 -1.81699
lowerneck -24.4707 -2.22354 1.44972
upperneck 21.7141 -5.37486 6.16742
head 11.2749 -1.49562 1.13225
rclavicle 3.60297e-014 -2.78299e-015
rhumerus -31.5093 32.7538 -95.1629
rradius 89.7445
rwrist -40.887
rhand -13.9002 -30.8751
rfingers 7.12502
rthumb 12.2253 -60.4978
lclavicle 3.60297e-014 -2.78299e-015
lhumerus -29.9825 -26.6778 90.1067
lradius 89.8369
lwrist 58.6489
lhand -50.2768 14.3958
lfingers 7.12502
lthumb -22.8548 43.0616
rfemur -34.8193 32.2352 -1.2106
rtibia 19.7109
rfoot -20.4061 -48.3407
rtoes 3.68687
lfemur -22.7464 -15.2338 -1.20997
ltibia 8.88111
lfoot -9.59333 32.9831
ltoes -4.08689
220
root 3.76051 15.8422 12.7835 27.1753 -8.05767 -4.78105
lowerback -16.0029 -0.25436 4.08039
upperback -6.23446 -1.00537 0.575266
thorax 2.27725 -0.561642 -1.87899
lowerneck -24.3592 -2.30815 1.38829
upperneck 21.7657 -5.51268 6.31546
head 11.2856 -1.54436 1.17445
rclavicle 2.10215e-014 1.59028e-014
rhumerus -31.2785 32.7619 -95.1279
rradius 89.9176
rwrist -40.8508
rhand -14.338 -30.3788
rfingers 7.12502
rthumb 11.8032 -60.0262
lclavicle 2.10215e-014 1.59028e-014
lhumerus -29.6317 -26.7064 89.8941
lradius 90.1151
lwrist 58.0954
lhand -50.1674 14.0044
lfingers 7.12502
lthumb -22.7497 42.6831
rfemur -34.3942 32.2577 -1.11589
rtibia 19.5084
rfoot -20.6232 -48.4248
rtoes 3.82262
lfemur -22.8903 -15.6879 -1.13805
ltibia 9.2181
lfoot -9.51172 33.3352
ltoes -4.83689
